<?xml version="1.0" standalone="no"?>
<!DOCTYPE svg PUBLIC "-//W3C//DTD SVG 20010904//EN"
 "http://www.w3.org/TR/2001/REC-SVG-20010904/DTD/svg10.dtd">
<svg version="1.0" xmlns="http://www.w3.org/2000/svg"
 width="2560.000000pt" height="780.000000pt" viewBox="0 0 2560.000000 780.000000"
 preserveAspectRatio="xMidYMid meet">
<metadata>
Created by potrace 1.12, written by Peter Selinger 2001-2015
</metadata>
<g transform="translate(0.000000,780.000000) scale(0.100000,-0.100000)"
fill="#000000" stroke="none">
<path d="M4445 7719 c-295 -19 -612 -46 -820 -70 -139 -16 -561 -69 -645 -82
-41 -6 -109 -9 -150 -7 -167 9 -315 3 -500 -18 -404 -47 -535 -69 -579 -99
-24 -16 -59 -18 -416 -18 -351 0 -396 -2 -455 -19 -57 -16 -113 -19 -472 -23
l-408 -4 0 -3690 0 -3689 12800 0 12800 0 0 3690 0 3690 -188 0 c-180 0 -189
1 -222 23 -89 60 -404 207 -443 207 -5 0 -15 -7 -21 -15 -12 -17 -124 -26
-590 -50 -265 -13 -281 -13 -320 5 -101 45 -125 51 -134 34 -6 -10 -36 -17
-103 -24 -212 -20 -707 -41 -1439 -60 -588 -16 -957 -31 -1300 -55 -120 -8
-235 -10 -300 -6 -58 4 -116 4 -130 0 -14 -4 -83 -13 -155 -19 -71 -7 -152
-17 -180 -23 -57 -13 -2039 -14 -2209 -2 -67 5 -101 4 -109 -4 -14 -14 -246
-15 -282 -1 -36 14 -172 15 -188 2 -9 -8 -123 -11 -349 -9 -290 2 -335 4 -325
16 10 12 7 13 -23 7 -40 -8 -245 -25 -308 -26 -27 0 -41 4 -40 12 4 19 -29 21
-63 4 -28 -14 -214 -16 -1755 -15 -1486 0 -1724 2 -1735 15 -16 20 -83 19 -75
-1 4 -13 -7 -15 -77 -13 -58 1 -67 3 -32 5 28 2 54 8 59 14 13 12 -115 11
-212 -1 -45 -6 -81 -6 -97 0 -14 5 -69 9 -122 8 -54 -1 -144 -2 -201 -2 -96
-1 -131 -9 -79 -19 12 -2 -241 -5 -563 -6 -455 0 -596 2 -635 12 -41 11 -59
11 -100 0 -51 -13 -349 -18 -392 -7 -16 4 -23 14 -23 30 0 30 -21 31 -59 3
-15 -11 -45 -24 -67 -29 -45 -11 -464 -13 -464 -3 0 3 7 14 16 24 17 19 11 39
-12 39 -7 0 -31 -16 -53 -35 -38 -34 -40 -35 -123 -35 -66 0 -89 4 -99 16 -10
13 -26 14 -83 9 -143 -13 -217 -11 -229 6 -10 13 -44 17 -177 23 -133 6 -172
11 -203 27 -32 16 -51 18 -140 13 -100 -6 -364 4 -758 27 -180 10 -199 10
-233 -6 -33 -16 -50 -16 -174 -6 -76 6 -147 11 -159 11 -12 0 -40 16 -63 35
-23 19 -50 35 -60 35 -10 0 -25 6 -32 13 -15 14 -53 33 -84 42 -13 3 -52 -6
-95 -23 -65 -26 -82 -29 -142 -23 -59 5 -69 9 -80 31 -10 19 -21 26 -52 28
-22 2 -71 12 -108 24 -58 18 -74 19 -101 10 -18 -7 -57 -12 -87 -12 -30 0 -59
-4 -65 -10 -12 -12 -76 3 -119 28 -26 15 -64 17 -295 18 -146 1 -278 5 -294 9
-18 5 -36 3 -47 -4 -24 -15 -198 -33 -241 -24 -18 3 -40 12 -48 19 -8 7 -35
17 -60 23 -52 12 -415 12 -605 0z"/>
</g>
</svg>
